<svg xmlns="http://www.w3.org/2000/svg" width="960" height="540" viewBox="0 0 960 540" fill="none">
  <rect width="960" height="540" rx="36" fill="#F9F4D7"/>
  <circle cx="142" cy="112" r="68" fill="#FFD166"/>
  <circle cx="814" cy="108" r="52" fill="#8BD3DD"/>
  <path d="M112 410C112 359.19 153.19 318 204 318H756C806.81 318 848 359.19 848 410V468H112V410Z" fill="#2C4A73"/>
  <rect x="184" y="142" width="594" height="186" rx="28" fill="#FFFFFF"/>
  <rect x="232" y="194" width="208" height="84" rx="22" fill="#7BDCB5"/>
  <circle cx="514" cy="236" r="46" fill="#FFD166"/>
  <path d="M494 208L538 236L494 264V208Z" fill="#2C4A73"/>
  <rect x="592" y="194" width="138" height="24" rx="12" fill="#DDEBFF"/>
  <rect x="592" y="238" width="110" height="24" rx="12" fill="#FFE29A"/>
  <text x="230" y="182" fill="#2C4A73" font-size="40" font-family="Arial, sans-serif" font-weight="700">第 1 章 数与加减法</text>
  <text x="232" y="390" fill="#F9F4D7" font-size="28" font-family="Arial, sans-serif">先看微课，再做题，把思路慢慢搭起来</text>
</svg>
